HIERARCHY
ROOT pelvis
{
  OFFSET 0 100 0
  CHANNELS 6 Xposition Yposition Zposition Zrotation Xrotation Yrotation
  JOINT pelvis_right_femur
  {
    OFFSET -10.78128 -3.44521 -0.5502486
    CHANNELS 3 Zrotation Xrotation Yrotation
    JOINT right_femur_tibia
    {
      OFFSET -0.8047443 -44.0398 -0.1307829
      CHANNELS 3 Zrotation Xrotation Yrotation
      JOINT right_tibia_foot
      {
        OFFSET 3.006224 -47.83518 -5
        CHANNELS 3 Zrotation Xrotation Yrotation
        End Site
        {
          OFFSET 0 -5 15
        }
      }
    }
  }
  JOINT pelvis_left_femur
  {
    OFFSET 10.78128 -3.44521 -0.5502486
    CHANNELS 3 Zrotation Xrotation Yrotation
    JOINT left_femur_tibia
    {
      OFFSET 0.8047443 -44.0398 -0.1307829
      CHANNELS 3 Zrotation Xrotation Yrotation
      JOINT left_tibia_foot
      {
        OFFSET -4.370144 -48.10324 -4.275266
        CHANNELS 3 Zrotation Xrotation Yrotation
        End Site
        {
          OFFSET 0 -5 15
        }
      }
    }
  }
  JOINT pelvis_spine1
  {
    OFFSET 0 6.468898 -3.129235
    CHANNELS 3 Zrotation Xrotation Yrotation
    JOINT spine1
    {
      OFFSET 0 23.15396 4.99043
      CHANNELS 3 Zrotation Xrotation Yrotation
      JOINT spine2
      {
        OFFSET 0 20.79997 -5.064912
        CHANNELS 3 Zrotation Xrotation Yrotation
        JOINT neck
        {
          OFFSET 0 14.38658 9.616178
          CHANNELS 3 Zrotation Xrotation Yrotation
          End Site
          {
            OFFSET 0 20 0
          }
        }
      }
      JOINT right_manubrium
      {
        OFFSET -5.722621 16.35077 3.967754
        CHANNELS 3 Zrotation Xrotation Yrotation
        JOINT right_clavicle
        {
          OFFSET -13.16364 1.694482 -4.693211
          CHANNELS 3 Zrotation Xrotation Yrotation
          JOINT right_humerus
          {
            OFFSET -28.5034 -0.3100689 -2.792744
            CHANNELS 3 Zrotation Xrotation Yrotation
            JOINT right_radius
            {
              OFFSET -25.15693 0.02248979 -1.271978
              CHANNELS 3 Zrotation Xrotation Yrotation
              End Site
              {
                OFFSET -15 0 0
              }
            }
          }
        }
      }
      JOINT left_manubrium
      {
        OFFSET 5.722621 16.35077 3.967754
        CHANNELS 3 Zrotation Xrotation Yrotation
        JOINT left_clavicle
        {
          OFFSET 13.16364 1.694482 -4.693211
          CHANNELS 3 Zrotation Xrotation Yrotation
          JOINT left_humerus
          {
            OFFSET 29.39168 -1.063119 -2.237045
            CHANNELS 3 Zrotation Xrotation Yrotation
            JOINT left_radius
            {
              OFFSET 24.59957 -0.9528479 0.9047498
              CHANNELS 3 Zrotation Xrotation Yrotation
              End Site
              {
                OFFSET 15 -0 -0
              }
            }
          }
        }
      }
    }
  }
}
MOTION
Frames: 11
Frame Time: 0.0416666666667
0 103.5113 0 5.658704 -7.62151 0.4967086 -6.778037 2.592826 10.55317 -0 27.37025 -0 -6.941972 -16.57467 -2.069621 -9.869289 16.20308 -24.24248 -0 5.613913 -0 19.2198 -8.81566 32.42186 -7.237144 -2.928415 6.560777 1.313802 11.54987 -5.977333 1.578738 21.60607 5.987376 3.545927 -21.21054 7.38068 9.831193 -18.09666 16.28038 83.07004 34.21876 -18.18432 -0 0 11.33773 -8.412774 -3.778198 18.90722 7.161738 -22.96865 -4.297462 -103.0008 32.29502 27.5975 0 0 -11.47844 9.514978 25.34339 6.125359
0.7065847 103.3929 0.6939185 5.428714 -7.929691 0.4489903 -6.147368 -1.302612 10.67517 -0 34.92576 -0 -6.648596 -15.11522 -2.670939 -10.06576 16.93555 -23.5335 -0 5.715706 -0 19.05942 -9.808913 32.01231 -7.065823 -2.028733 6.097975 1.164102 11.86858 -6.115101 1.49207 21.21178 6.508827 3.972244 -21.39514 7.579087 9.612435 -18.2851 16.01774 82.6567 33.82072 -17.68871 -0 0 11.36355 -8.632832 -3.635592 18.91949 7.078536 -22.68386 -3.989245 -102.1939 31.92984 27.02962 0 0 -11.44661 9.733471 24.63323 6.135432
1.336959 103.3607 1.577355 4.976771 -8.166644 0.354981 -5.208041 -5.506495 10.46091 -0 42.01856 -0 -6.398903 -13.38938 -3.444993 -9.996607 17.71852 -22.82045 -0 5.776418 -0 18.82067 -10.80643 31.5935 -6.906569 -1.094453 5.45543 1.256146 12.12829 -6.495638 1.408938 20.78883 7.0556 4.444656 -21.60173 7.773212 9.451555 -18.47269 15.71612 82.2716 33.41797 -17.3055 -0 0 11.26275 -8.847497 -3.466784 18.87381 7.100532 -22.40309 -3.852096 -101.4084 31.59388 26.3145 0 0 -11.81791 10.02213 23.97351 6.076019
1.810217 103.2026 2.630831 4.303474 -8.006724 0.09646479 -4.053815 -9.557824 9.61566 -0 47.17228 -0 -6.404633 -12.16895 -4.30901 -9.622406 18.28769 -22.06421 -0 5.743738 -0 18.54726 -11.89166 31.15486 -6.781857 -0.2718444 4.919218 1.441972 12.24718 -6.895445 1.402658 20.32352 7.558857 4.98203 -21.76334 7.936847 9.490024 -18.66991 15.39178 82.03928 33.02685 -17.07471 -0 0 11.0676 -8.981263 -3.247653 18.75848 7.11684 -22.32157 -3.647756 -100.1788 31.29785 25.43899 0 0 -12.16416 10.28502 23.22193 6.041947
2.164901 103.3095 3.881625 3.579714 -7.68276 -0.1724828 -2.637648 -14.28046 8.412429 -0 49.12342 -0 -6.589397 -11.44342 -4.862628 -9.10221 18.81286 -21.2161 -0 5.65187 -0 18.10851 -12.95782 30.58485 -6.617874 0.528928 4.472227 1.782059 12.2067 -7.344724 1.300784 19.88979 8.05472 5.483308 -21.84702 7.980228 9.448085 -18.71056 15.01801 81.94844 32.66154 -17.19529 -0 0 10.60439 -9.061816 -2.984085 18.57857 7.310484 -22.49427 -3.44702 -98.91055 31.01922 24.2046 0 0 -13.05123 10.67599 22.52016 5.904652
2.443273 103.3292 5.357197 2.944573 -6.96656 -0.6015114 -1.192737 -18.77967 7.111167 -0 47.62057 -0 -6.792312 -10.67563 -4.824255 -8.606069 19.15903 -20.30937 -0 5.442498 -0 17.58321 -14.07482 29.88245 -6.676069 1.127125 4.309343 2.095152 11.98097 -7.625076 1.084919 19.31555 8.459575 5.887604 -21.85937 7.792895 9.473176 -18.51519 14.71768 82.19359 32.35772 -17.67682 -0 0 9.844458 -8.997528 -2.606332 18.23461 7.661819 -22.75739 -3.174781 -97.57792 30.7004 22.80682 0 0 -14.28119 11.09025 21.75715 5.639251
2.688888 103.0985 7.177031 2.500604 -6.02185 -1.031949 0.09864264 -23.01786 6.061521 -0 43.78484 -0 -7.022907 -9.491591 -4.490546 -8.321196 19.45443 -19.41369 -0 5.353848 -0 17.08078 -15.34831 29.04958 -6.627582 1.536928 4.337243 2.56791 11.73381 -7.737162 1.190461 18.99078 8.954873 6.388477 -22.27609 8.199477 9.244005 -18.11064 14.32029 82.6723 32.09727 -18.46119 -0 0 8.90733 -8.795349 -2.120208 17.79367 7.894332 -23.08512 -3.028579 -96.25428 30.32934 21.16299 0 0 -15.9055 11.51429 20.95947 5.215622
2.886955 102.5077 9.218087 2.24043 -4.918687 -1.622921 0.8556567 -26.6443 5.366722 -0 37.55609 -0 -7.159325 -8.483546 -4.003124 -7.93358 19.43802 -18.7301 -0 5.467875 -0 16.62206 -16.7784 28.01309 -6.629109 1.828686 4.489517 2.924384 11.38822 -7.720467 1.218855 18.75422 9.46199 6.726326 -22.82997 8.723362 8.945094 -17.72727 14.0307 83.21716 31.90813 -19.22704 -0 0 7.964241 -8.51137 -1.531085 17.30169 8.149038 -23.53078 -2.952817 -94.90038 29.9438 19.41295 0 0 -17.76454 11.89634 20.14141 4.701187
3.10893 101.8471 11.84647 1.975764 -3.683098 -1.574496 1.272828 -29.27924 4.884138 -0 30.84131 -0 -7.26473 -7.596702 -3.473605 -8.2441 19.68667 -17.2149 -0 6.215658 -0 15.93747 -17.95982 27.22812 -6.513114 1.81551 4.270273 3.283808 11.14451 -8.009817 1.080944 18.48238 9.853372 6.933241 -23.22652 8.93494 8.742069 -17.28892 13.6713 83.8079 31.75295 -20.14707 -0 0 6.856061 -8.173613 -0.8643129 16.69636 8.268026 -23.84488 -2.911939 -93.84386 29.51326 17.913 0 0 -19.57077 12.13473 19.28476 4.209646
3.192608 101.0479 15.01944 1.695209 -2.645085 -1.077188 1.759696 -31.09668 4.754984 -0 25.32574 -0 -7.521855 -6.960313 -2.910623 -8.033324 19.99571 -15.93987 -0 7.524593 -0 15.07007 -19.07711 26.03912 -6.220597 1.806415 3.877684 3.562421 10.95783 -8.396272 0.9394593 18.25995 10.20847 7.078119 -23.50247 9.135338 8.514263 -16.79553 13.26581 84.52747 31.6292 -21.11557 -0 0 5.726376 -7.796962 -0.1321479 16.01959 8.3218 -24.32162 -2.76016 -92.50595 28.98931 16.48133 0 0 -20.87759 12.27333 18.38136 3.970121
3.179318 100.414 18.75671 1.11925 -1.671981 -0.1186252 2.513808 -31.8574 4.932943 -0 22.2442 -0 -8.02975 -6.531759 -2.562955 -7.205657 20.34738 -14.97954 -0 9.784374 -0 13.78377 -19.7612 24.35087 -5.63889 1.713882 3.327217 3.827492 10.91718 -8.898797 0.9002364 18.04784 10.43254 7.225723 -23.74702 9.275387 8.319927 -16.3515 12.84153 85.23956 31.55363 -22.02591 -0 0 4.665863 -7.442577 0.6480451 15.30819 8.032906 -24.47 -2.548825 -91.64758 28.43121 15.68465 0 0 -21.50496 12.21445 17.49161 3.986058
